<svg id="Layer_1" data-name="Layer 1" xmlns="http://www.w3.org/2000/svg" viewBox="0 0 131.34 44.8"><defs><style>.cls-1{fill:#fff;}</style></defs><path class="cls-1" d="M241.15,409l18.36-38.37L284.84,409Z" transform="translate(-212.69 -367.61)"/><path class="cls-1" d="M301.73,409.17c-4.67,0-9.12.05-13.57-.06-.59,0-1.31-.74-1.69-1.32-4-5.94-8-11.93-12-17.88-.73-1.1-.86-1.89.33-2.78,3-2.27,6-4.61,9-7,1.08-.87,1.74-.74,2.41.47q7.59,13.77,15.22,27.52A5.52,5.52,0,0,1,301.73,409.17Z" transform="translate(-212.69 -367.61)"/><path class="cls-1" d="M336.29,384.55a27.35,27.35,0,0,1,3.57-3,13.33,13.33,0,0,1,3.41-1c.25.95.56,1.89.72,2.86a14.15,14.15,0,0,1,0,2.06c0,1.13-.4,1.54-1.62,1.49-4.45-.16-6.28,1.69-6.28,6.14,0,5.17,0,10.35,0,15.53,0,2.56-.17,2.72-2.67,2.76-4.19.06-4.19.06-4.19-4.15q0-11.89,0-23.81c0-2.52.17-2.66,2.73-2.69.41,0,.83,0,1.24,0,2.08-.24,3.19.49,2.91,2.76A3.12,3.12,0,0,0,336.29,384.55Z" transform="translate(-212.69 -367.61)"/><path class="cls-1" d="M212.73,389.69c0-3.25-.09-6.5,0-9.74.31-10,5.84-13.16,14.72-12.17,5.87.66,9.11,3.6,9.44,9.48a169.65,169.65,0,0,1,0,24.8c-.84,9.3-12.7,13.55-20.06,7.62-3-2.4-3.86-5.83-4-9.43s0-7,0-10.56Zm17,.12h0c0-3.31,0-6.63,0-9.93a16.87,16.87,0,0,0-.39-3.48c-.52-2.29-1.78-3.24-4.1-3.32-2.72-.09-4.29,1.15-4.73,3.86a23.38,23.38,0,0,0-.34,3.91c.05,7,.05,14.06.29,21.09.14,3.9,3.65,5.85,6.87,4,2-1.14,2.31-3.2,2.37-5.21C229.78,397.12,229.71,393.46,229.71,389.81Z" transform="translate(-212.69 -367.61)"/><path class="cls-1" d="M318.49,407.27c-1.48,2.72-3,4.62-5.92,4.54A6.64,6.64,0,0,1,306,405.6c-.39-4.65,1.59-8,5.6-10.23a36.78,36.78,0,0,1,5.29-2.36c1.92-.7,1.54-2.23,1.52-3.63s.05-3.14-1.66-3.92-3.05.27-3.64,2.27c-.28.93-.65,2.49-1.14,2.56a15.56,15.56,0,0,1-4.89-.37c-.3-.06-.6-1.31-.51-2,.76-5.38,4.64-8.23,10.38-7.73,5.23.45,7.54,2.41,8,7.69.41,4.8.22,9.65.3,14.48.05,2.42.05,4.84.23,7.24.11,1.33-.41,1.78-1.6,1.77a14,14,0,0,0-1.45,0c-1.91.19-3.29-.26-3.36-2.53A7,7,0,0,0,318.49,407.27Zm-.06-10.92c-4.22.79-6.81,4.68-5.78,8.15.41,1.38,1.22,2.46,2.76,2.29s2.87-1,3-2.67C318.55,401.6,318.43,399.06,318.43,396.35Z" transform="translate(-212.69 -367.61)"/></svg>